<svg xmlns="http://www.w3.org/2000/svg" width="48" height="48" viewBox="0 0 48 48" fill="none">
  <path d="M24.0028 24C18.48 24 14.0029 19.5228 14.0029 14C14.0029 8.47716 18.48 4 24.0028 4C29.5256 4 34.0028 8.47716 34.0028 14C34.0028 19.5228 29.5256 24 24.0028 24ZM36.0028 34V44H32.0028V34C32.0028 25.0974 37.2908 17.43 44.897 13.967L46.5526 17.6094C40.3292 20.4426 36.0028 26.7162 36.0028 34ZM16.0029 34V44H12.0029V34C12.0029 26.7162 7.6764 20.4426 1.45312 17.6094L3.10874 13.967C10.715 17.43 16.0029 25.0974 16.0029 34Z" fill="url(#paint0_linear_766_5262)"/>
  <defs>
    <linearGradient id="paint0_linear_766_5262" x1="11.5" y1="67.5" x2="48.3955" y2="61.4196" gradientUnits="userSpaceOnUse">
      <stop stop-color="#2C4403"/>
      <stop offset="0.53" stop-color="#749538"/>
      <stop offset="1" stop-color="#A0C858"/>
    </linearGradient>
  </defs>
</svg>